<svg height="512pt" viewBox="-13 0 512 512" width="512pt" xmlns="http://www.w3.org/2000/svg"><path d="m243.378906 0c29.871094 1.289062 47.808594 24.859375 47.808594 24.859375 30.265625-23.253906 63.773438 4.648437 75.660156 48.050781 7.273438 26.566406 2.160156 72.488282-2.902344 104.128906-8.683593-9.226562-18.832031-7.597656-26.726562-3.757812.128906-8.480469-.179688-13.675781-.179688-13.675781s-40.847656-30.890625-61.128906-83.078125c0 0-10.238281 15.558594-32.53125 34.011718zm0 0" fill="#945b44"/><path d="m337.21875 173.28125c8.71875-4.242188 20.1875-5.785156 29.390625 7.007812 15.421875 21.4375 1.984375 84.808594-42.097656 70.113282 10.34375-28.613282 12.441406-59.757813 12.707031-77.121094zm0 0" fill="#ffbd86"/><path d="m329.761719 233.109375c-1.457031 5.78125-3.183594 11.585937-5.246094 17.292969 36.335937 12.113281 51.84375-28.816406 47.535156-55.582032-3.171875 21.828126-17.136719 43.4375-42.289062 38.289063zm0 0" fill="#ffa664"/><path d="m242.902344 314.28125c21.582031.070312 38.253906-6.636719 51.125-17.289062v44.566406c0 28.09375-22.773438 50.871094-50.871094 50.871094-28.09375 0-50.867188-22.777344-50.867188-50.871094v-44.574219c12.75 10.546875 29.253907 17.226563 50.613282 17.296875zm0 0" fill="#ffbd86"/><path d="m149.789062 158.980469s-10.242187 154.957031 93.113282 155.300781c103.355468.339844 94.136718-154.679688 94.136718-154.679688s-40.847656-30.886718-61.128906-83.074218c0 0-37.71875 57.351562-126.121094 82.453125zm0 0" fill="#fed2a4"/><path d="m242.902344 295.582031c-79.496094-.261719-91.785156-91.980469-93.222656-134.320312-.773438 19.078125-2.757813 152.699219 93.222656 153.019531 99.425781.328125 94.675781-143.097656 94.171875-154-1.460938 41.574219-13.664063 135.566406-94.171875 135.300781zm0 0" fill="#ffbd86"/><path d="m192.289062 296.984375v18.6875c12.75 10.546875 29.25 17.234375 50.613282 17.308594 21.589844.070312 38.25-6.652344 51.125-17.308594v-18.675781c-12.875 10.648437-29.542969 17.355468-51.125 17.285156-21.359375-.070312-37.863282-6.75-50.613282-17.296875zm0 0" fill="#ffa664"/><path d="m243.378906 0v110.539062c-20.511718 16.980469-51.226562 36.414063-93.589844 48.445313 0 0-.011718.21875-.035156.636719-.011718-.007813-.035156-.015625-.035156-.015625s-.210938 3.59375-.207031 9.667969c-.101563 26.125 3.535156 95.253906 42.777343 127.714843v44.570313s-45.980468 24.09375-89.597656 48.5625c-16.640625-102.027344-45.332031-389.816406 140.6875-390.121094zm0 0" fill="#ca6d36"/><path d="m102.691406 390.121094c43.617188-24.46875 89.597656-48.5625 89.597656-48.5625v-23.316406c-11.015624 5.839843-54.570312 29.003906-92.84375 50.40625 1.09375 7.820312 2.191407 15.019531 3.246094 21.472656zm0 0" fill="#ad5e2e"/><path d="m243.378906 392.421875c-.074218 0-.144531.007813-.21875.007813-28.09375 0-50.871094-22.777344-50.871094-50.871094 0 0-133.300781 69.847656-161.277343 92.46875-22.46875 18.164062-29.195313 57.453125-30.9726565 72.210937-.3710935 3.070313 2.0273435 5.761719 5.1171875 5.761719h238.226562v-119.578125zm0 0" fill="#ff94d4"/><path d="m294.027344 341.558594c0 28.019531-22.65625 50.746094-50.644532 50.863281v119.578125h237.78125c3.085938 0 5.484376-2.691406 5.117188-5.757812-1.777344-14.761719-8.503906-54.046876-30.976562-72.214844-27.972657-22.617188-161.277344-92.46875-161.277344-92.46875zm0 0" fill="#8bcaff"/><path d="m5.15625 512h238.226562v-18.699219h-241.316406c-.996094 5.1875-1.636718 9.667969-2.0273435 12.941407-.3710935 3.066406 2.0273435 5.757812 5.1171875 5.757812zm0 0" fill="#ff73c6"/><path d="m243.378906 493.300781v18.699219h237.78125c3.089844 0 5.488282-2.691406 5.117188-5.757812-.394532-3.273438-1.03125-7.753907-2.027344-12.941407zm0 0" fill="#60b8ff"/><path d="m291.1875 189.351562c7.175781 0 12.792969-6.953124 12.792969-15.828124s-5.617188-15.828126-12.792969-15.828126c-7.171875 0-12.789062 6.953126-12.789062 15.828126s5.617187 15.828124 12.789062 15.828124zm0 0" fill="#433f43"/><path d="m207.921875 173.523438c0-8.875-5.621094-15.828126-12.792969-15.828126s-12.792968 6.953126-12.792968 15.828126 5.621093 15.828124 12.792968 15.828124 12.792969-6.953124 12.792969-15.828124zm0 0" fill="#433f43"/><path d="m203.085938 235.019531c-3.597657 2.359375-4.597657 7.1875-2.242188 10.789063.625.949218 15.609375 23.324218 42.316406 23.324218 26.703125 0 41.6875-22.375 42.3125-23.324218 2.351563-3.585938 1.351563-8.382813-2.222656-10.753906-3.574219-2.367188-8.402344-1.386719-10.789062 2.175781-.109376.164062-11.140626 16.324219-29.304688 16.324219-18.105469 0-29.121094-16.058594-29.300781-16.320313-2.367188-3.578125-7.183594-4.570313-10.769531-2.214844zm0 0" fill="#ff646f"/><path d="m251.386719 226.808594c.792969 0 1.601562-.019532 2.429687-.050782 4.300782-.179687 7.640625-3.8125 7.460938-8.109374-.183594-4.300782-3.820313-7.640626-8.109375-7.460938-3.804688.160156-10.507813-.066406-12.578125-3.359375-2.667969-4.242187.40625-14.332031 3.324218-19.816406 2.03125-3.785157.613282-8.503907-3.171874-10.542969-3.792969-2.039062-8.511719-.621094-10.554688 3.167969-1.183594 2.195312-11.316406 21.859375-2.8125 35.449219 4.457031 7.121093 12.527344 10.722656 24.011719 10.722656zm0 0" fill="#ffa664"/></svg>